<svg width="169px" height="169px" viewBox="0 0 169 169" version="1.1" xmlns="http://www.w3.org/2000/svg" xmlns:xlink="http://www.w3.org/1999/xlink" xml:space="preserve" xmlns:serif="http://www.serif.com/" style="fill-rule:evenodd;clip-rule:evenodd;stroke-linejoin:round;stroke-miterlimit:2;">
    <g transform="matrix(16.9109,0,0,15.2193,-87.3577,-65.1785)">
        <rect x="5.166" y="4.283" width="9.994" height="11.104" style="fill:rgb(84,110,122);"/>
    </g>
    <g transform="matrix(1.50857,0,0,1.50857,9.06957,8.91302)">
        <path d="M80.918,21.168C72.168,18.984 63.684,15.84 55.625,11.793L53.25,10.625C51.199,9.625 48.801,9.625 46.75,10.625L44.375,11.793C36.316,15.84 27.832,18.984 19.082,21.168C15.828,21.973 13.539,24.895 13.543,28.25L13.543,40.957C13.57,51.582 16.824,61.949 22.871,70.684C28.922,79.418 37.48,86.11 47.418,89.875C49.086,90.488 50.914,90.488 52.582,89.875C62.52,86.109 71.078,79.418 77.129,70.684C83.176,61.95 86.43,51.582 86.457,40.957L86.457,28.457C86.543,25.031 84.242,22.004 80.918,21.168L80.918,21.168ZM80.211,40.961L80.207,40.957C80.176,50.313 77.309,59.441 71.98,67.133C66.656,74.824 59.121,80.723 50.375,84.043C50.133,84.125 49.868,84.125 49.625,84.043C40.879,80.723 33.344,74.824 28.02,67.133C22.692,59.442 19.825,50.313 19.794,40.957L19.794,28.457C19.813,27.988 20.13,27.586 20.583,27.457C29.774,25.148 38.688,21.852 47.169,17.625L49.544,16.418L50.458,16.418L52.833,17.625C61.313,21.852 70.228,25.148 79.419,27.457C79.872,27.586 80.189,27.988 80.208,28.457L80.211,40.961ZM65.875,35.082C67.195,36.195 67.379,38.16 66.293,39.5L48.918,60.332C48.355,61.008 47.543,61.414 46.668,61.457C45.84,61.457 45.043,61.129 44.457,60.543L33.918,50C33.32,49.418 32.984,48.625 32.984,47.793C32.984,46.961 33.32,46.164 33.918,45.582C34.535,45.031 35.348,44.746 36.176,44.793C37.004,44.84 37.781,45.215 38.332,45.832L46.332,53.832L61.5,35.625C62.563,34.27 64.516,34.027 65.875,35.082L65.875,35.082Z" style="fill:white;fill-rule:nonzero;"/>
    </g>
</svg>
