<svg width="100%" height="100%" viewBox="0 0 24 24" version="1.1" xmlns="http://www.w3.org/2000/svg" xmlns:xlink="http://www.w3.org/1999/xlink" xml:space="preserve" xmlns:serif="http://www.serif.com/" style="fill-rule:evenodd;clip-rule:evenodd;stroke-linejoin:round;stroke-miterlimit:2;">
    <g transform="matrix(1,0,0,1,-59.987154,-31.976857)">
        <g id="Login-Warning" serif:id="Login Warning" transform="matrix(0.24,0,0,0.24,59.507154,32.216857)">
            <rect x="2" y="-1" width="100" height="100" style="fill:none;"/>
            <clipPath id="_clip1">
                <rect x="2" y="-1" width="100" height="100"/>
            </clipPath>
            <g clip-path="url(#_clip1)">
                <g transform="matrix(50,0,0,50,2,-1)">
                    <rect x="0" y="0" width="2" height="2" style="fill:rgb(67,170,139);"/>
                </g>
                <g transform="matrix(0.756193,0,0,0.756193,14.190635,11.190575)">
                    <path d="M88.57,60C88.57,71.816 78.957,81.43 67.14,81.43C55.323,81.43 45.71,71.817 45.71,60C45.71,48.183 55.323,38.57 67.14,38.57C74.52,38.57 81.041,42.32 84.897,48.015C87.215,51.438 88.57,55.564 88.57,60ZM82.855,60C82.855,51.336 75.804,44.285 67.14,44.285C58.476,44.285 51.425,51.336 51.425,60C51.425,68.664 58.476,75.715 67.14,75.715C75.804,75.715 82.855,68.664 82.855,60ZM72.119,53.854C73.146,52.658 74.953,52.52 76.148,53.543C77.344,54.566 77.484,56.371 76.457,57.57L67.887,67.57C67.371,68.176 66.625,68.539 65.828,68.566L65.719,68.57C64.965,68.57 64.238,68.273 63.699,67.734L57.984,62.02C56.867,60.906 56.867,59.098 57.984,57.98C59.098,56.863 60.906,56.863 62.024,57.98L65.555,61.512L72.119,53.854Z" style="fill-opacity:0.4;"/>
                </g>
                <g transform="matrix(0.756193,0,0,0.756193,14.190635,11.190575)">
                    <path d="M56.775,83.42C57.553,84.791 57.07,86.539 55.695,87.316C52.816,88.949 49.75,90.285 46.582,91.293C46.3,91.383 46.007,91.43 45.714,91.43C45.421,91.43 45.128,91.387 44.847,91.297C24.859,84.938 11.429,66.57 11.429,45.594L11.429,22.86C11.429,21.661 12.183,20.587 13.308,20.176L44.738,8.742C45.367,8.512 46.062,8.512 46.691,8.742L78.121,20.172C79.25,20.583 80,21.657 80,22.856L80,34.286C80,35.864 78.723,37.142 77.145,37.142C75.566,37.142 74.289,35.864 74.289,34.286L74.289,24.856L45.719,14.465L17.149,24.856L17.149,45.586C17.149,63.758 28.59,79.707 45.719,85.559C48.204,84.708 50.61,83.63 52.883,82.341C54.258,81.559 55.998,82.045 56.775,83.42Z"/>
                </g>
            </g>
        </g>
        <g id="Colors">
        </g>
    </g>
</svg>
